<?xml version="1.0" encoding="utf-8"?>
<!-- Generator: Adobe Illustrator 27.0.0, SVG Export Plug-In . SVG Version: 6.00 Build 0)  -->
<svg version="1.1" id="Logo" xmlns="http://www.w3.org/2000/svg" xmlns:xlink="http://www.w3.org/1999/xlink" x="0px" y="0px"
	 viewBox="0 0 629.3 295.6" style="enable-background:new 0 0 629.3 295.6;" xml:space="preserve">
<style type="text/css">
	.st0{fill:#666666;}
	.st1{fill:#84B819;}
</style>
<g>
	<path class="st0" d="M8.7,215.9V8.8h48.2v207.1H8.7z"/>
	<g>
		<path class="st1" d="M307.9,95.9c-3.1,2.4-8.8,3.6-17.1,3.6h-97.7v35.7h119c16.5,0,28.4-3.2,35.8-9.5c7.4-6.3,11.1-16.5,11.1-30.5
			V49c0-14.1-3.7-24.3-11.1-30.7c-7.4-6.3-19.3-9.5-35.8-9.5H106.5v207.1H154v-80.7h0V99.5h0V44.7h136.8c8.4,0,14.1,1.2,17.1,3.6
			c3.1,2.4,4.6,6.6,4.6,12.6v22.1C312.5,89.2,311,93.5,307.9,95.9z"/>
		<path class="st1" d="M608.5,99.9c-7.1-6.9-20.8-10.4-41.1-10.4h-94v0h-20.5c-7.8,0-14.2-6.3-14.2-14.2V59.2
			c0-7.8,6.3-14.2,14.2-14.2h20.5v0H619V8.8H447.5c-20.1,0-33.7,3.5-40.8,10.4c-7.1,6.9-10.6,19.8-10.6,38.6v22.9
			c0,18.8,3.5,31.7,10.6,38.6c7.1,6.9,20.6,10.4,40.8,10.4h92.1l21.6,0.1c8.2,0,14.9,6.7,14.9,15v17.1c0,8.1-6.3,14.7-14.3,15H193.3
			v39h374.2c20.2,0,33.9-3.5,41.1-10.4c7.1-6.9,10.7-19.8,10.7-38.6v-28.4C619.2,119.7,615.6,106.9,608.5,99.9z"/>
	</g>
	<g>
		<rect x="8.6" y="246.5" class="st0" width="3.8" height="29.8"/>
		<path class="st0" d="M30.4,254.5c-2.4,0-5.5,1.3-6.6,3.9l-0.3-3.3h-3.1v21.2H24v-11.5c0-3.9,2.1-7.1,5.7-7.1c3.2,0,4.6,2,4.6,5.1
			v13.5h3.6v-14C37.8,257.4,35.2,254.5,30.4,254.5z"/>
		<path class="st0" d="M55.6,264.3l-5-0.8c-1.7-0.3-2.9-1-2.9-2.6c0-2.1,2-3.4,4.6-3.4c2.7,0,4.6,1.4,4.7,3.8h3.6
			c0-4.1-3.6-6.8-8.3-6.8c-4.2,0-8,2.6-8,6.5c0,3.2,2.1,5.2,5.3,5.7l4.7,0.8c2.2,0.3,3.4,1.3,3.4,2.9c0,2.4-2.4,3.5-5,3.5
			c-3.2,0-5.5-1.5-5.5-4.3h-3.6c0,4.5,3.9,7.3,8.9,7.3c4.8,0,8.6-2.4,8.6-6.8C61.1,266.9,58.6,264.8,55.6,264.3z"/>
		<path class="st0" d="M71.5,270v-11.9h6v-3.1h-6v-6.5l-3.6,0.8v5.6h-4.7v3.1h4.7v12.4c0,2.9,1.5,6,6.1,6c1.8,0,2.9-0.3,3.7-0.6
			v-3.1c-0.8,0.2-1.9,0.4-3.2,0.4C72.6,273.2,71.5,272.2,71.5,270z"/>
		<rect x="83.1" y="255.1" class="st0" width="3.7" height="21.2"/>
		<rect x="82.8" y="245.9" class="st0" width="4.2" height="4.2"/>
		<path class="st0" d="M99.2,270v-11.9h6v-3.1h-6v-6.5l-3.6,0.8v5.6H91v3.1h4.7v12.4c0,2.9,1.5,6,6.1,6c1.8,0,2.9-0.3,3.7-0.6v-3.1
			c-0.8,0.2-1.9,0.4-3.2,0.4C100.4,273.2,99.2,272.2,99.2,270z"/>
		<path class="st0" d="M123.8,266.5c0,4.2-1.8,7.1-5.5,7.1c-3.1,0-4.6-1.9-4.6-5.1v-13.5h-3.6v14c0,4.8,3,7.8,7.6,7.8
			c2.5,0,5.4-1.4,6.3-4l0.3,3.4h3.1v-21.2h-3.6V266.5z"/>
		<path class="st0" d="M139.9,270v-11.9h6v-3.1h-6v-6.5l-3.6,0.8v5.6h-4.7v3.1h4.7v12.4c0,2.9,1.5,6,6.1,6c1.8,0,2.9-0.3,3.7-0.6
			v-3.1c-0.8,0.2-1.9,0.4-3.2,0.4C141.1,273.2,139.9,272.2,139.9,270z"/>
		<path class="st0" d="M162.3,251.7v3.4h-4.5v3h4.5v18.2h3.6v-18.2h6.1v-3h-6.1v-3.2c0-1.9,1.2-3.3,3.4-3.3c1.4,0,2.2,0.2,3,0.4V246
			c-0.8-0.3-1.7-0.5-3.3-0.5C164.9,245.5,162.3,248.2,162.3,251.7z"/>
		<rect x="185.8" y="247.4" class="st0" width="3.9" height="4"/>
		<path class="st0" d="M189.2,266.5c0,4.2-1.8,7.1-5.5,7.1c-3.1,0-4.6-1.9-4.6-5.1v-13.5h-3.6v14c0,4.8,3,7.8,7.6,7.8
			c2.5,0,5.4-1.4,6.3-4l0.3,3.4h3.1v-21.2h-3.6V266.5z"/>
		<rect x="178.5" y="247.4" class="st0" width="3.9" height="4"/>
		<path class="st0" d="M203.7,258.7l-0.3-3.7h-3.2v21.2h3.6V266c0-4.1,1.6-7.6,6.3-7.6c0.7,0,1.2,0.1,1.7,0.2V255
			c-0.5-0.1-1.1-0.1-1.7-0.1C207.3,254.9,204.8,256,203.7,258.7z"/>
		<path class="st0" d="M237.4,246.5h-10.8v29.8h3.7v-12.1h7.1c6.1,0,10.1-3.2,10.1-8.9S243.5,246.5,237.4,246.5z M237.3,260.8h-7
			v-10.9h7c4,0,6.3,1.8,6.3,5.5C243.6,259,241.3,260.8,237.3,260.8z"/>
		<path class="st0" d="M255.9,258.7l-0.3-3.7h-3.2v21.2h3.6V266c0-4.1,1.6-7.6,6.3-7.6c0.7,0,1.2,0.1,1.7,0.2V255
			c-0.5-0.1-1.1-0.1-1.7-0.1C259.6,254.9,257,256,255.9,258.7z"/>
		<path class="st0" d="M275.8,254.5c-2.8,0-5,1-6.6,2.5c-2.4,2.3-3.1,5.3-3.1,8.7s0.7,6.5,3.1,8.7c1.6,1.5,3.8,2.5,6.6,2.5
			s5-1,6.6-2.5c2.4-2.3,3.1-5.4,3.1-8.7s-0.7-6.4-3.1-8.7C280.8,255.4,278.6,254.5,275.8,254.5z M279.8,272.3
			c-0.9,0.9-2.3,1.5-4,1.5s-3.1-0.6-4-1.5c-1.6-1.6-2.1-3.8-2.1-6.6s0.5-5,2.1-6.6c0.9-0.9,2.3-1.5,4-1.5s3.1,0.6,4,1.5
			c1.6,1.6,2.1,3.8,2.1,6.6S281.4,270.7,279.8,272.3z"/>
		<path class="st0" d="M305.3,257.5c-0.8-1.8-3.4-3-6-3c-2.6,0-4.6,0.8-6.1,2.1c-2.4,2.1-3.5,5.4-3.5,9.1c0,3.6,1.1,6.8,3.3,8.8
			c1.5,1.4,3.5,2.4,6.2,2.4c2.5,0,5.3-1.3,6.3-3.8l0.3,3.2h3.2v-30.4h-3.6V257.5z M303.2,272.4c-0.9,0.8-2.1,1.5-3.7,1.5
			c-1.9,0-3.3-0.7-4.3-1.8c-1.4-1.6-1.9-4-1.9-6.4c0-2.4,0.6-5,2.1-6.6c1-1,2.3-1.6,4.1-1.6c1.6,0,2.8,0.6,3.7,1.4
			c1.8,1.6,2.3,4.1,2.3,6.8S305,270.8,303.2,272.4z"/>
		<path class="st0" d="M329.6,266.5c0,4.2-1.8,7.1-5.5,7.1c-3.1,0-4.6-1.9-4.6-5.1v-13.5H316v14c0,4.8,3,7.8,7.6,7.8
			c2.5,0,5.4-1.4,6.3-4l0.3,3.4h3.1v-21.2h-3.6V266.5z"/>
		<polygon class="st0" points="358.8,255.1 354.4,255.1 344.5,265.7 344.5,245.9 341,245.9 341,276.3 344.5,276.3 344.5,270.1 
			348,266.5 354.7,276.3 358.9,276.3 350.3,264 		"/>
		<path class="st0" d="M368.5,270v-11.9h6v-3.1h-6v-6.5l-3.6,0.8v5.6h-4.7v3.1h4.7v12.4c0,2.9,1.5,6,6.1,6c1.8,0,2.9-0.3,3.7-0.6
			v-3.1c-0.8,0.2-1.9,0.4-3.2,0.4C369.7,273.2,368.5,272.2,368.5,270z"/>
		<rect x="379.7" y="245.9" class="st0" width="4.2" height="4.2"/>
		<rect x="380" y="255.1" class="st0" width="3.7" height="21.2"/>
		<path class="st0" d="M399.3,254.5c-2.8,0-5,1-6.6,2.5c-2.4,2.3-3.1,5.3-3.1,8.7s0.7,6.5,3.1,8.7c1.6,1.5,3.8,2.5,6.6,2.5
			c2.8,0,5-1,6.6-2.5c2.4-2.3,3.1-5.4,3.1-8.7s-0.7-6.4-3.1-8.7C404.3,255.4,402.1,254.5,399.3,254.5z M403.3,272.3
			c-0.9,0.9-2.3,1.5-4,1.5c-1.7,0-3.1-0.6-4-1.5c-1.6-1.6-2.1-3.8-2.1-6.6s0.5-5,2.1-6.6c0.9-0.9,2.3-1.5,4-1.5c1.7,0,3.1,0.6,4,1.5
			c1.6,1.6,2.1,3.8,2.1,6.6S404.9,270.7,403.3,272.3z"/>
		<path class="st0" d="M425,254.5c-2.4,0-5.5,1.3-6.6,3.9l-0.3-3.3H415v21.2h3.6v-11.5c0-3.9,2.1-7.1,5.7-7.1c3.2,0,4.6,2,4.6,5.1
			v13.5h3.6v-14C432.5,257.4,429.8,254.5,425,254.5z"/>
		<path class="st0" d="M449.9,264.3l-5-0.8c-1.7-0.3-2.9-1-2.9-2.6c0-2.1,2-3.4,4.6-3.4c2.7,0,4.6,1.4,4.7,3.8h3.6
			c0-4.1-3.6-6.8-8.3-6.8c-4.2,0-8,2.6-8,6.5c0,3.2,2.1,5.2,5.3,5.7l4.7,0.8c2.2,0.3,3.4,1.3,3.4,2.9c0,2.4-2.4,3.5-5,3.5
			c-3.2,0-5.5-1.5-5.5-4.3h-3.6c0,4.5,3.9,7.3,8.9,7.3c4.8,0,8.6-2.4,8.6-6.8C455.4,266.9,452.9,264.8,449.9,264.3z"/>
		<path class="st0" d="M471.7,264.3l-5-0.8c-1.7-0.3-2.9-1-2.9-2.6c0-2.1,2-3.4,4.6-3.4c2.7,0,4.6,1.4,4.7,3.8h3.6
			c0-4.1-3.6-6.8-8.3-6.8c-4.2,0-8,2.6-8,6.5c0,3.2,2.1,5.2,5.3,5.7l4.7,0.8c2.2,0.3,3.4,1.3,3.4,2.9c0,2.4-2.4,3.5-5,3.5
			c-3.2,0-5.5-1.5-5.5-4.3h-3.6c0,4.5,3.9,7.3,8.9,7.3c4.8,0,8.6-2.4,8.6-6.8C477.2,266.9,474.7,264.8,471.7,264.3z"/>
		<path class="st0" d="M490,271.8l-6.2-16.7h-4.1l8.5,21.2l-1.2,3.3c-1,2.6-2.5,3-4.1,3c-0.9,0-1.8-0.2-2.4-0.5v3
			c0.5,0.3,1.6,0.6,3.1,0.6c3.3,0,5.4-1.7,6.7-5.3l9.5-25.3h-3.8L490,271.8z"/>
		<path class="st0" d="M513.9,264.3l-5-0.8c-1.7-0.3-2.9-1-2.9-2.6c0-2.1,2-3.4,4.6-3.4c2.7,0,4.6,1.4,4.7,3.8h3.6
			c0-4.1-3.6-6.8-8.3-6.8c-4.2,0-8,2.6-8,6.5c0,3.2,2.1,5.2,5.3,5.7l4.7,0.8c2.2,0.3,3.4,1.3,3.4,2.9c0,2.4-2.4,3.5-5,3.5
			c-3.2,0-5.5-1.5-5.5-4.3h-3.6c0,4.5,3.9,7.3,8.9,7.3c4.8,0,8.6-2.4,8.6-6.8C519.4,266.9,517,264.8,513.9,264.3z"/>
		<path class="st0" d="M529.8,270v-11.9h6v-3.1h-6v-6.5l-3.6,0.8v5.6h-4.7v3.1h4.7v12.4c0,2.9,1.5,6,6.1,6c1.8,0,2.9-0.3,3.7-0.6
			v-3.1c-0.8,0.2-1.9,0.4-3.2,0.4C530.9,273.2,529.8,272.2,529.8,270z"/>
		<path class="st0" d="M548.9,254.5c-3.8,0-6.6,1.9-8.2,4.5c-1.2,2-1.7,4.2-1.7,6.8c0,3,0.9,5.8,2.7,7.9c1.7,2,4.4,3.2,7.4,3.2
			c4.3,0,8.1-2.9,8.7-6.9h-3.6c-0.7,2.5-2.7,3.7-5.1,3.7c-4,0-6.4-2.9-6.4-6.8h15.4c0.1-0.6,0.1-1.5,0.1-2.1
			C558.2,259.1,554.7,254.5,548.9,254.5z M542.9,263.8c0.1-3.1,2.1-6.3,6-6.3c3.7,0,5.8,2.6,5.8,6.3H542.9z"/>
		<path class="st0" d="M586.6,254.5c-2.7,0-5.5,1.4-6.6,4c-0.9-2.6-3.2-4-6.3-4c-2.4,0-4.9,1.2-6,3.7l-0.3-3.1h-3.1v21.2h3.6v-12.1
			c0-3.4,2.1-6.4,5.2-6.4c3.2,0,4.2,2.2,4.2,5.2v13.4h3.5v-12.1c0-3.6,2-6.4,5.2-6.4c3.2,0,4.3,2.1,4.3,5v13.5h3.6v-14
			C593.8,257.6,591.5,254.5,586.6,254.5z"/>
		<path class="st0" d="M618.2,264.7c0-5.6-3.5-10.2-9.3-10.2c-3.8,0-6.6,1.9-8.2,4.5c-1.2,2-1.7,4.2-1.7,6.8c0,3,0.9,5.8,2.7,7.9
			c1.7,2,4.4,3.2,7.4,3.2c4.3,0,8.1-2.9,8.7-6.9h-3.6c-0.7,2.5-2.7,3.7-5.1,3.7c-4,0-6.4-2.9-6.4-6.8h15.4
			C618.2,266.2,618.2,265.4,618.2,264.7z M602.8,263.8c0.1-3.1,2.1-6.3,6-6.3c3.7,0,5.8,2.6,5.8,6.3H602.8z"/>
	</g>
</g>
</svg>
